<!-- icon666.com - MILLIONS vector ICONS FREE --><svg version="1.1" id="Capa_1" xmlns="http://www.w3.org/2000/svg" xmlns:xlink="http://www.w3.org/1999/xlink" x="0px" y="0px" viewBox="0 0 512 512" style="enable-background:new 0 0 512 512;" xml:space="preserve"><g><g><g><path d="M346.133,343.607c-27.136-9.462-42.496-16.118-42.496-43.09c0-13.496,7.66-25.784,15.053-37.642 c6.84-10.977,13.312-21.361,13.312-32.543c0-7.987-1.413-13.517-2.437-17.551c-1.495-5.837-2.109-8.274,2.581-17.572 c8.622-16.957,8.028-55.398-5.652-77.681c-7.025-11.407-15.524-15.626-22.651-16.876c-21.279-23.613-48.763-24.822-83.927-3.625 c-38.154,22.979-53.105,72.499-40.059,98.181c4.71,9.298,4.096,11.735,2.601,17.572c-1.024,4.035-2.437,9.564-2.437,17.551 c0,11.182,6.472,21.565,13.312,32.543c7.393,11.858,15.053,24.146,15.053,37.642c0,26.972-15.36,33.628-42.496,43.09 c-28.283,9.871-63.488,22.118-63.488,76.165c0,5.652,4.587,10.24,10.24,10.24h286.72c5.673,0,10.24-4.588,10.24-10.24 C409.6,365.726,374.415,353.479,346.133,343.607z"></path><path d="M159.13,324.274c10.895-3.809,17.633-6.533,21.852-9.052c-6.472-3.604-13.373-6.062-19.538-8.151 c-18.35-6.226-24.781-9.626-24.781-23.286c0-7.27,4.608-14.438,9.073-21.381c4.506-7.025,9.196-14.316,9.196-22.467 c0-5.53-0.983-9.257-1.72-12.001c-0.819-3.174-0.963-3.666,1.352-8.11c6.676-12.739,4.997-37.97-3.441-51.937 c-4.076-6.738-9.687-11.08-16.159-12.554c-14.848-15.36-33.669-16.056-57.528-2.089c-26.276,15.421-36.372,49.029-27.177,66.58 c2.314,4.444,2.171,4.936,1.352,8.11c-0.737,2.744-1.72,6.472-1.72,12.001c0,8.151,4.69,15.442,9.195,22.467 c4.465,6.943,9.073,14.111,9.073,21.381c0,13.66-6.431,17.06-24.781,23.286C25.068,313.276,0,321.775,0,358.332 c0,5.652,4.588,10.24,10.24,10.24h84.234C110.776,341.191,139.448,331.135,159.13,324.274z"></path><path d="M468.644,307.071c-18.35-6.226-24.781-9.626-24.781-23.286c0-7.27,4.608-14.438,9.073-21.381 c4.506-7.025,9.196-14.316,9.196-22.467c0-5.53-0.983-9.257-1.72-12.001c-0.819-3.174-0.963-3.666,1.352-8.11 c6.676-12.739,4.997-37.97-3.441-51.937c-4.076-6.738-9.687-11.08-16.159-12.554c-14.848-15.36-33.669-16.056-57.528-2.089 c-26.276,15.421-36.372,49.029-27.177,66.58c2.314,4.444,2.171,4.936,1.352,8.11c-0.737,2.744-1.72,6.472-1.72,12.001 c0,8.151,4.69,15.442,9.195,22.467c4.465,6.943,9.073,14.111,9.073,21.381c0,13.66-6.431,17.06-24.781,23.286 c-6.164,2.089-13.066,4.547-19.538,8.151c4.219,2.539,10.957,5.243,21.832,9.052c19.702,6.861,48.374,16.916,64.676,44.298 h84.214c5.673,0,10.24-4.588,10.24-10.24C512,321.775,486.953,313.276,468.644,307.071z"></path></g></g></g></svg>